<svg xmlns="http://www.w3.org/2000/svg" style="display:none">
  <!-- 중랑정책주방 아이콘 세트: 24x24, 선 1.6, 색은 currentColor -->
  <symbol id="k-basket" viewBox="0 0 24 24" fill="none" stroke="currentColor" stroke-width="1.6" stroke-linecap="round" stroke-linejoin="round"><path d="M3 10h18l-2 9H5z"/><path d="M8 10l3-6M16 10l-3-6"/><path d="M9 14v2M12 14v2M15 14v2"/></symbol>
  <symbol id="k-pot" viewBox="0 0 24 24" fill="none" stroke="currentColor" stroke-width="1.6" stroke-linecap="round" stroke-linejoin="round"><path d="M4 10h16v6a4 4 0 0 1-4 4H8a4 4 0 0 1-4-4z"/><path d="M2 10h20"/><path d="M9 7c0-1 1-1 1-2M14 7c0-1 1-1 1-2"/></symbol>
  <symbol id="k-spoon" viewBox="0 0 24 24" fill="none" stroke="currentColor" stroke-width="1.6" stroke-linecap="round" stroke-linejoin="round"><ellipse cx="8" cy="8" rx="3.2" ry="4.8" transform="rotate(-45 8 8)"/><path d="M10.5 10.5L20 20"/></symbol>
  <symbol id="k-knife" viewBox="0 0 24 24" fill="none" stroke="currentColor" stroke-width="1.6" stroke-linecap="round" stroke-linejoin="round"><rect x="3" y="13" width="14" height="7" rx="2"/><path d="M17 16.5h3"/><path d="M6 13l9.5-9 2 2-7.5 7"/></symbol>
  <symbol id="k-flame" viewBox="0 0 24 24" fill="none" stroke="currentColor" stroke-width="1.6" stroke-linecap="round" stroke-linejoin="round"><path d="M12 3c1 4 6 6 6 11a6 6 0 0 1-12 0c0-3 2-4 3-6 1 2 2 2 3 1-1-2-1-4 0-6z"/></symbol>
  <symbol id="k-recipe" viewBox="0 0 24 24" fill="none" stroke="currentColor" stroke-width="1.6" stroke-linecap="round" stroke-linejoin="round"><rect x="5" y="3" width="14" height="18" rx="2"/><path d="M9 8h6M9 12h6M9 16h4"/></symbol>
  <symbol id="k-bowl" viewBox="0 0 24 24" fill="none" stroke="currentColor" stroke-width="1.6" stroke-linecap="round" stroke-linejoin="round"><path d="M3 11h18a9 9 0 0 1-18 0z"/><path d="M9 21h6"/><path d="M8 7c0-1 1-1 1-2M12 7c0-1 1-1 1-2M16 7c0-1 1-1 1-2"/></symbol>
</svg>
